<svg width="24" height="25" viewBox="0 0 24 25" fill="none" xmlns="http://www.w3.org/2000/svg">
<path d="M16.793 6.56302L12.293 11.063L13.707 12.477L18.207 7.97702L21 10.77V3.77002H14L16.793 6.56302Z" fill="white"/>
<path d="M16.422 14.216C16.2299 14.0414 15.9774 13.9482 15.7178 13.9562C15.4583 13.9643 15.212 14.0728 15.031 14.259L12.638 16.72C12.062 16.61 10.904 16.249 9.71201 15.06C8.52001 13.867 8.15901 12.706 8.05201 12.134L10.511 9.74001C10.6974 9.55913 10.8061 9.31283 10.8142 9.05321C10.8222 8.7936 10.7289 8.54105 10.554 8.34901L6.85901 4.28601C6.68405 4.09336 6.44089 3.97651 6.18116 3.96026C5.92143 3.94402 5.66561 4.02966 5.46801 4.199L3.29901 6.06C3.12566 6.2329 3.02207 6.46358 3.00801 6.70801C2.99301 6.95801 2.70701 12.88 7.29901 17.474C11.305 21.48 16.323 21.773 17.705 21.773C17.907 21.773 18.031 21.767 18.064 21.765C18.3085 21.7513 18.5393 21.6477 18.712 21.474L20.572 19.303C20.7415 19.1055 20.8273 18.8498 20.8112 18.5901C20.7952 18.3303 20.6785 18.0871 20.486 17.912L16.422 14.216Z" fill="white"/>
</svg>
