<svg width="22" height="23" viewBox="0 0 22 23" fill="none" xmlns="http://www.w3.org/2000/svg">
<g clip-path="url(#clip0_63_453)">
<path opacity="0.985" fill-rule="evenodd" clip-rule="evenodd" d="M4.74805 1.09229C8.90171 1.08512 13.0554 1.09229 17.209 1.11377C17.9037 1.29281 18.3405 1.72965 18.5195 2.42432C18.541 4.27192 18.5482 6.11959 18.541 7.96728C19.0139 7.96011 19.4865 7.96728 19.959 7.98877C20.6537 8.16782 21.0905 8.60464 21.2695 9.29932C21.2982 13.2238 21.2982 17.1483 21.2695 21.0728C21.0905 21.7674 20.6537 22.2042 19.959 22.3833C13.972 22.412 7.98501 22.412 1.99805 22.3833C1.30339 22.2042 0.866539 21.7674 0.687501 21.0728C0.658854 17.1483 0.658854 13.2238 0.687501 9.29932C0.866539 8.60464 1.30339 8.16782 1.99805 7.98877C2.47049 7.96728 2.94315 7.96011 3.41602 7.96728C3.40885 6.11959 3.41602 4.27192 3.4375 2.42432C3.62437 1.72902 4.06122 1.28501 4.74805 1.09229ZM5.13477 1.77979C9.03061 1.77262 12.9265 1.77979 16.8223 1.80127C17.4167 1.88004 17.7533 2.21664 17.832 2.81103C17.8607 7.85269 17.8607 12.8944 17.832 17.936C17.7533 18.5304 17.4167 18.867 16.8223 18.9458C12.9264 18.9745 9.03061 18.9745 5.13477 18.9458C4.54038 18.867 4.20378 18.5304 4.125 17.936C4.09635 12.8944 4.09635 7.85269 4.125 2.81103C4.21146 2.21616 4.54803 1.87241 5.13477 1.77979ZM10.9355 6.24853C11.9338 6.36588 12.385 6.92448 12.2891 7.92432C12.0281 8.72482 11.4767 9.06144 10.6348 8.93408C9.86524 8.64877 9.54297 8.09735 9.66797 7.27978C9.87525 6.66494 10.2978 6.32119 10.9355 6.24853ZM2.38477 8.65478C2.72852 8.65478 3.07227 8.65478 3.41602 8.65478C3.42318 9.3281 3.41601 10.0013 3.39453 10.6743C2.73415 10.2647 2.06814 9.86371 1.39649 9.47119C1.55982 8.99235 1.88924 8.72023 2.38477 8.65478ZM18.541 8.65478C18.8851 8.64765 19.2288 8.65478 19.5723 8.67627C20.0737 8.72641 20.4031 8.9914 20.5605 9.47119C19.8889 9.86371 19.2229 10.2647 18.5625 10.6743C18.541 10.0013 18.5338 9.3281 18.541 8.65478ZM1.35352 10.3306C2.0499 10.7047 2.73024 11.1058 3.39453 11.5337C3.40885 13.7967 3.42318 16.0597 3.4375 18.3228C3.61654 19.0174 4.05339 19.4542 4.74805 19.6333C8.90171 19.662 13.0553 19.662 17.209 19.6333C17.9037 19.4542 18.3405 19.0174 18.5195 18.3228C18.5338 16.0597 18.5482 13.7967 18.5625 11.5337C19.2244 11.1156 19.8976 10.7145 20.582 10.3306C20.6107 13.7824 20.6107 17.2342 20.582 20.686C20.5033 21.2804 20.1667 21.617 19.5723 21.6958C13.8431 21.7245 8.11392 21.7245 2.38477 21.6958C1.79037 21.617 1.45378 21.2804 1.375 20.686C1.35352 17.2342 1.34635 13.7824 1.35352 10.3306Z" fill="white"/>
<path opacity="0.935" fill-rule="evenodd" clip-rule="evenodd" d="M10.377 3.49855C12.5039 3.34379 14.0007 4.23181 14.8672 6.16261C14.9658 6.44234 15.0374 6.72881 15.082 7.02199C15.1107 7.56627 15.1107 8.11051 15.082 8.6548C14.809 9.46854 14.2432 9.80516 13.3848 9.66456C13.0194 9.5568 12.7258 9.34913 12.5039 9.04152C11.8194 9.70925 11.0245 9.87395 10.1191 9.53566C9.01481 8.90127 8.66388 7.97744 9.06641 6.76417C9.61117 5.75076 10.4491 5.37121 11.5801 5.6255C11.8658 5.70027 12.1165 5.83635 12.332 6.03371C12.334 5.59203 12.5417 5.45595 12.9551 5.6255C12.982 5.65773 13.0035 5.69357 13.0195 5.73292C13.0219 6.66573 13.0506 7.59674 13.1055 8.52589C13.333 8.96516 13.6696 9.07258 14.1152 8.84816C14.352 8.60513 14.4522 8.31152 14.416 7.9673C14.352 5.70229 13.199 4.44188 10.957 4.18605C9.25178 4.33045 8.1489 5.21846 7.64844 6.85011C7.38397 8.40416 7.89246 9.62877 9.17384 10.5239C10.1648 11.0809 11.196 11.1668 12.2676 10.7818C12.5107 10.6746 12.7398 10.5457 12.9551 10.395C13.4066 10.3165 13.5713 10.4955 13.4492 10.9321C12.4271 11.6935 11.2884 11.9371 10.0332 11.6626C8.27128 11.1683 7.21854 10.0224 6.87501 8.22511C6.69935 6.09708 7.58021 4.60036 9.51759 3.73488C9.80582 3.64147 10.0923 3.56269 10.377 3.49855ZM10.9356 6.24855C10.2978 6.32121 9.87526 6.66496 9.66798 7.2798C9.54298 8.09737 9.86525 8.64878 10.6348 8.9341C11.4767 9.06146 12.0281 8.72484 12.2891 7.92433C12.385 6.92449 11.9338 6.3659 10.9356 6.24855Z" fill="white"/>
<path opacity="0.993" fill-rule="evenodd" clip-rule="evenodd" d="M6.33789 12.7798C9.43168 12.7726 12.5254 12.7798 15.6191 12.8013C15.7487 12.867 15.806 12.9744 15.791 13.1235C15.806 13.2727 15.7487 13.3801 15.6191 13.4458C12.5254 13.4745 9.43164 13.4745 6.33789 13.4458C6.2083 13.3801 6.15102 13.2727 6.16601 13.1235C6.15665 12.9703 6.21397 12.8558 6.33789 12.7798Z" fill="white"/>
<path opacity="0.993" fill-rule="evenodd" clip-rule="evenodd" d="M6.33789 14.4985C9.43168 14.4914 12.5254 14.4985 15.6191 14.52C15.7487 14.5857 15.806 14.6931 15.791 14.8423C15.806 14.9914 15.7487 15.0989 15.6191 15.1646C12.5254 15.1932 9.43164 15.1932 6.33789 15.1646C6.2083 15.0989 6.15102 14.9914 6.16601 14.8423C6.15665 14.6891 6.21397 14.5745 6.33789 14.4985Z" fill="white"/>
<path opacity="0.993" fill-rule="evenodd" clip-rule="evenodd" d="M6.33789 16.2173C9.43168 16.2101 12.5254 16.2173 15.6191 16.2388C15.7487 16.3045 15.806 16.4119 15.791 16.561C15.806 16.7102 15.7487 16.8176 15.6191 16.8833C12.5254 16.912 9.43164 16.912 6.33789 16.8833C6.2083 16.8176 6.15102 16.7102 6.16601 16.561C6.15665 16.4078 6.21397 16.2933 6.33789 16.2173Z" fill="white"/>
</g>
<defs>
<clipPath id="clip0_63_453">
<rect width="22" height="22" fill="white" transform="translate(0 0.77002)"/>
</clipPath>
</defs>
</svg>
