<svg width="20" height="21" viewBox="0 0 20 21" fill="none" xmlns="http://www.w3.org/2000/svg">
<path d="M1 4.97002C1 3.85002 1 3.29002 1.218 2.86202C1.40974 2.48571 1.71569 2.17976 2.092 1.98802C2.52 1.77002 3.08 1.77002 4.2 1.77002H15.8C16.92 1.77002 17.48 1.77002 17.908 1.98802C18.2843 2.17976 18.5903 2.48571 18.782 2.86202C19 3.29002 19 3.85002 19 4.97002V16.57C19 17.69 19 18.25 18.782 18.678C18.5903 19.0543 18.2843 19.3603 17.908 19.552C17.48 19.77 16.92 19.77 15.8 19.77H4.2C3.08 19.77 2.52 19.77 2.092 19.552C1.71569 19.3603 1.40974 19.0543 1.218 18.678C1 18.25 1 17.69 1 16.57V4.97002Z" stroke="white" stroke-width="2" stroke-linecap="round"/>
<path d="M17 19.77L13 5.27002M19 4.77002L1 6.77002M11 12.858C11 14.698 9.261 16.003 8.431 16.522C8.30189 16.6032 8.15249 16.6462 8 16.6462C7.84751 16.6462 7.69811 16.6032 7.569 16.522C6.739 16.003 5 14.697 5 12.858C5 11.005 6.454 9.77002 8 9.77002C9.6 9.77002 11 11.005 11 12.858Z" stroke="white" stroke-width="2"/>
</svg>
