<svg width="20" height="22" viewBox="0 0 20 22" fill="none" xmlns="http://www.w3.org/2000/svg">
<path opacity="0.975" fill-rule="evenodd" clip-rule="evenodd" d="M9.46289 0.436052C10.7969 0.297633 11.8496 0.770289 12.6211 1.85402C13.0847 2.66537 13.1993 3.52474 12.9648 4.43215C12.8722 4.71063 12.7504 4.97562 12.5996 5.22707C14.2324 5.24138 15.8652 5.25573 17.498 5.27004C17.7996 5.37106 18.0217 5.56442 18.1641 5.85011C18.2171 6.19056 18.2458 6.53431 18.25 6.88136C18.8086 7.99855 19.3672 9.11574 19.9258 10.2329C19.9647 10.7081 19.9504 11.1808 19.8828 11.6509C19.7644 11.9769 19.5711 12.249 19.3027 12.4673C19.2669 15.2745 19.2455 18.0818 19.2383 20.8892C19.2168 20.9679 19.1667 21.0181 19.0879 21.0396C13.015 21.0682 6.94204 21.0682 0.869135 21.0396C0.790361 21.0181 0.740229 20.9679 0.718745 20.8892C0.711582 18.0818 0.690098 15.2745 0.654292 12.4673C0.385969 12.249 0.19261 11.9769 0.0742134 11.6509C0.00664074 11.1808 -0.00768075 10.7081 0.0312446 10.2329C0.589839 9.11574 1.14843 7.99855 1.70703 6.88136C1.71123 6.53431 1.73988 6.19056 1.79296 5.85011C1.93537 5.56442 2.15737 5.37106 2.45898 5.27004C4.09179 5.25573 5.7246 5.24138 7.35742 5.22707C6.83694 4.31867 6.74387 3.3662 7.07812 2.36965C7.54274 1.31107 8.33766 0.666541 9.46289 0.436052ZM9.54882 1.16652C10.645 1.04509 11.4828 1.44614 12.0625 2.36965C12.6096 3.60406 12.3662 4.64965 11.332 5.50636C10.8919 6.4011 10.4407 7.2891 9.97851 8.17043C9.51634 7.2891 9.06517 6.4011 8.625 5.50636C7.65042 4.71647 7.37826 3.72817 7.80859 2.54152C8.18173 1.8171 8.76181 1.35877 9.54882 1.16652ZM9.76367 2.88527C10.5055 2.87482 10.7562 3.21857 10.5156 3.91652C10.247 4.19629 9.93907 4.24639 9.59179 4.06691C9.31202 3.79831 9.26192 3.49036 9.4414 3.14308C9.53224 3.03047 9.63966 2.94453 9.76367 2.88527ZM2.75976 5.93605C4.50721 5.92888 6.25462 5.93605 8.00195 5.95754C8.11109 6.16868 8.22564 6.37635 8.3457 6.58058C6.36935 6.62355 4.39279 6.63786 2.41601 6.62355C2.39457 6.41455 2.43754 6.22119 2.54492 6.04347C2.62289 6.01095 2.6945 5.97515 2.75976 5.93605ZM11.9551 5.93605C13.7025 5.92888 15.4499 5.93605 17.1973 5.95754C17.3906 5.97902 17.498 6.08644 17.5195 6.2798C17.5409 6.3935 17.5481 6.5081 17.541 6.62355C15.5644 6.63073 13.5878 6.62355 11.6113 6.60207C11.7319 6.38228 11.8465 6.16026 11.9551 5.93605ZM2.2871 7.31105C4.43571 7.29674 6.58415 7.31105 8.73242 7.35402C9.05468 7.99855 9.37695 8.64308 9.69921 9.28761C9.8854 9.40221 10.0716 9.40221 10.2578 9.28761C10.5801 8.64308 10.9023 7.99855 11.2246 7.35402C13.373 7.29674 15.5215 7.29674 17.6699 7.35402C18.1139 8.24206 18.558 9.13005 19.002 10.0181C12.9863 10.0754 6.9707 10.0754 0.955073 10.0181C1.41125 9.12008 1.85526 8.21774 2.2871 7.31105ZM0.69726 10.7486C1.38476 10.7486 2.07226 10.7486 2.75976 10.7486C2.8255 11.3842 2.56769 11.8211 1.98632 12.0591C1.08499 12.1018 0.655301 11.6649 0.69726 10.7486ZM3.44726 10.7486C4.13476 10.7486 4.82226 10.7486 5.50976 10.7486C5.5755 11.3842 5.31769 11.8211 4.73632 12.0591C3.83501 12.1018 3.40532 11.6649 3.44726 10.7486ZM6.19726 10.7486C6.88476 10.7486 7.57226 10.7486 8.25976 10.7486C8.3255 11.3842 8.06769 11.8211 7.48632 12.0591C6.58501 12.1018 6.15532 11.6649 6.19726 10.7486ZM8.94726 10.7486C9.63476 10.7486 10.3223 10.7486 11.0098 10.7486C11.0755 11.3842 10.8177 11.8211 10.2363 12.0591C9.33501 12.1018 8.90532 11.6649 8.94726 10.7486ZM11.6973 10.7486C12.3848 10.7486 13.0723 10.7486 13.7598 10.7486C13.8255 11.3842 13.5677 11.8211 12.9863 12.0591C12.085 12.1018 11.6553 11.6649 11.6973 10.7486ZM14.4473 10.7486C15.1348 10.7486 15.8223 10.7486 16.5098 10.7486C16.5755 11.3842 16.3177 11.8211 15.7363 12.0591C14.835 12.1018 14.4053 11.6649 14.4473 10.7486ZM17.1973 10.7486C17.8848 10.7486 18.5723 10.7486 19.2598 10.7486C19.3255 11.3842 19.0677 11.8211 18.4863 12.0591C17.8802 12.1608 17.472 11.9244 17.2617 11.3501C17.219 11.1517 17.1975 10.9511 17.1973 10.7486ZM3.06054 12.2095C3.25785 12.3802 3.4727 12.5306 3.70507 12.6607C4.52432 12.984 5.24048 12.8336 5.85351 12.2095C6.46655 12.8336 7.18271 12.984 8.00195 12.6607C8.22552 12.5416 8.42605 12.3912 8.60351 12.2095C9.25204 12.8514 9.99682 12.9875 10.8379 12.6177C11.0283 12.5061 11.2002 12.3701 11.3535 12.2095C12.002 12.8514 12.7468 12.9875 13.5879 12.6177C13.7783 12.5061 13.9502 12.3701 14.1035 12.2095C14.752 12.8514 15.4968 12.9875 16.3379 12.6177C16.5283 12.5061 16.7002 12.3701 16.8535 12.2095C17.3182 12.7082 17.8911 12.9087 18.5723 12.8111C18.5723 15.3319 18.5723 17.8527 18.5723 20.3736C16.5098 20.3736 14.4473 20.3736 12.3848 20.3736C12.3919 18.1391 12.3848 15.9048 12.3633 13.6704C12.3418 13.5917 12.2916 13.5415 12.2129 13.52C10.7233 13.4914 9.23373 13.4914 7.74414 13.52C7.66537 13.5415 7.61523 13.5917 7.59375 13.6704C7.57226 15.9048 7.56509 18.1391 7.57226 20.3736C5.50976 20.3736 3.44726 20.3736 1.38476 20.3736C1.38476 17.8527 1.38476 15.3319 1.38476 12.8111C2.06053 12.9154 2.61912 12.7148 3.06054 12.2095ZM8.25976 14.1861C9.40561 14.1861 10.5514 14.1861 11.6973 14.1861C11.6973 16.2486 11.6973 18.3111 11.6973 20.3736C10.5514 20.3736 9.40561 20.3736 8.25976 20.3736C8.25976 18.3111 8.25976 16.2486 8.25976 14.1861ZM2.75976 14.8736C3.90561 14.8736 5.05141 14.8736 6.19726 14.8736C6.19726 16.2486 6.19726 17.6236 6.19726 18.9986C5.05141 18.9986 3.90561 18.9986 2.75976 18.9986C2.75976 17.6236 2.75976 16.2486 2.75976 14.8736ZM13.7598 14.8736C14.9056 14.8736 16.0514 14.8736 17.1973 14.8736C17.1973 16.2486 17.1973 17.6236 17.1973 18.9986C16.0514 18.9986 14.9056 18.9986 13.7598 18.9986C13.7598 17.6236 13.7598 16.2486 13.7598 14.8736ZM9.63476 15.5611C9.86391 15.5611 10.0931 15.5611 10.3223 15.5611C10.3223 15.7902 10.3223 16.0194 10.3223 16.2486C10.0931 16.2486 9.86391 16.2486 9.63476 16.2486C9.63476 16.0194 9.63476 15.7902 9.63476 15.5611Z" fill="white"/>
</svg>
